{"title":"Cowboys And Aliens (2011) PPVRIP IFLIX-MS501","uid":6756837,"size":1959953233,"categoryP":"video","categoryS":"movies","magnet":"?xt=urn:btih:8706ca33147dd3c98de9d09ba21e192895ceacfc&amp;dn=Cowboys+And+Aliens+%282011%29+PPVRIP+IFLIX-MS501&amp;tr=udp%3A%2F%2Ftracker.openbittorrent.com%3A80&amp;tr=udp%3A%2F%2Fopen.demonii.com%3A1337&amp;tr=udp%3A%2F%2Ftracker.coppersurfer.tk%3A6969&amp;tr=udp%3A%2F%2Fexodus.desync.com%3A6969","seeders":0,"leechers":0,"uploader":"moviesdoktore","files":7,"time":1319064864,"description":"Cowboys And Aliens (2011) PPVRIP IFLIX-MS501\n\nAction | Sci-Fi | Thriller \n\n &lt;a href=&quot;\nhttp://files.mothhelah.com/img/SFz96620.png&quot; rel=&quot;nofollow&quot; target=&quot;_NEW&quot;&gt;\nhttp://files.mothhelah.com/img/SFz96620.png&lt;/a&gt;\n\n\nLanguage : English\nFormat : AVI\nFormat/Info : Audio Video Interleave\nFormat profile : OpenDML\nFile size : 1.62 GiB\nDuration : 1h 44mn\nOverall bit rate : 2 211 Kbps\n\nVideo\nID : 0\nFormat : MPEG-4 Visual\nFormat profile : Simple\nFormat settings, BVOP : No\nFormat settings, QPel : No\nFormat settings, GMC : No warppoints\nFormat settings, Matrix : Default (H.263)\nCodec ID : XVID\nCodec ID/Hint : XviD\nDuration : 1h 44mn\nBit rate : 2 066 Kbps\nWidth : 640 pixels\nHeight : 480 pixels\nDisplay aspect ratio : 4:3\nFrame rate : 29.970 fps\nOriginal frame rate : 29.000 fps\nResolution : 24 bits\nColorimetry : 4:2:0\nScan type : Progressive\nBits/(Pixel*Frame) : 0.224\nStream size : 1.51 GiB (93%)\nWriting library : XviD 1.2.1 (UTC 2008-12-04)\n\nAudio\nID : 1\nFormat : MPEG Audio\nFormat version : Version 1\nFormat profile : Layer 3\nFormat_Settings_Mode : Joint stereo / MS Stereo\nCodec ID : 55\nCodec ID/Hint : MP3\nDuration : 1h 44mn\nBit rate mode : Constant\nBit rate : 128 Kbps\nChannel(s) : 2 channels\nSampling rate : 44.1 KHz\nResolution : 16 bits\nStream size : 96.1 MiB (6%)\nAlignment : Aligned on interleaves\nInterleave, duration : 26 ms (0.78 video frame)\nWriting library : LAME3.98.2\n\nscreenshots\n &lt;a href=&quot;\nhttp://files.mothhelah.com/img/INc57098.png&quot; rel=&quot;nofollow&quot; target=&quot;_NEW&quot;&gt;\nhttp://files.mothhelah.com/img/INc57098.png&lt;/a&gt;\n\n","torrent":{"xt":"urn:btih:8706ca33147dd3c98de9d09ba21e192895ceacfc","amp;dn":"Cowboys+And+Aliens+%282011%29+PPVRIP+IFLIX-MS501","amp;tr":["udp%3A%2F%2Ftracker.openbittorrent.com%3A80","udp%3A%2F%2Fopen.demonii.com%3A1337","udp%3A%2F%2Ftracker.coppersurfer.tk%3A6969","udp%3A%2F%2Fexodus.desync.com%3A6969"],"infoHash":"8706ca33147dd3c98de9d09ba21e192895ceacfc","infoHashBuffer":{"type":"Buffer","data":[135,6,202,51,20,125,211,201,141,233,208,155,162,30,25,40,149,206,172,252]},"announce":[],"urlList":[]}}